<?xml version="1.0" encoding="iso-8859-1"?>
<!-- Generator: Adobe Illustrator 19.0.0, SVG Export Plug-In . SVG Version: 6.00 Build 0)  -->
<svg version="1.1" id="Capa_1" xmlns="http://www.w3.org/2000/svg" xmlns:xlink="http://www.w3.org/1999/xlink" x="0px" y="0px"
	 viewBox="0 0 502.624 502.624" style="enable-background:new 0 0 502.624 502.624;" xml:space="preserve">
<g>
	<g>
		<g>
			<rect x="97.138" y="328.231" transform="matrix(-0.7071 -0.7071 0.7071 -0.7071 -50.2698 667.6391)" width="32" height="32"/>
			<path d="M362.032,72.704L181.024,253.712l22.624,22.624l90.496-90.496l22.64,22.64L67.872,457.376l-22.624-22.624l45.264-45.28
				l-22.624-22.624L0,434.752l67.872,67.872L429.92,140.592L362.032,72.704z M316.768,163.2l45.264-45.264l22.64,22.64
				l-45.248,45.28L316.768,163.2z"/>
			<rect x="142.413" y="282.981" transform="matrix(-0.7071 0.7071 -0.7071 -0.7071 481.8393 398.3773)" width="32" height="32"/>
			<path d="M118.624,192h32c0.053-44.161,35.839-79.947,80-80V80c-44.161-0.053-79.947-35.839-80-80h-32
				c-0.053,44.161-35.839,79.947-80,80v32C82.785,112.053,118.571,147.839,118.624,192z M134.624,57.6
				c9.49,15.73,22.67,28.91,38.4,38.4c-15.73,9.49-28.91,22.67-38.4,38.4c-9.49-15.73-22.67-28.91-38.4-38.4
				C111.954,86.51,125.134,73.33,134.624,57.6z"/>
			<path d="M438.624,256h-32c0,35.346-28.654,64-64,64v32c35.346,0,64,28.654,64,64h32c0-35.346,28.654-64,64-64v-32
				C467.278,320,438.624,291.346,438.624,256z M422.624,362.992c-7.116-10.7-16.292-19.876-26.992-26.992
				c10.7-7.116,19.876-16.292,26.992-26.992c7.116,10.7,16.292,19.876,26.992,26.992
				C438.916,343.116,429.74,352.292,422.624,362.992z"/>
			<rect x="406.624" y="32" width="32" height="32"/>
			<rect x="438.624" width="32" height="32"/>
			<rect x="470.624" y="32" width="32" height="32"/>
			<rect x="438.624" y="64" width="32" height="32"/>
		</g>
	</g>
</g>
<g>
</g>
<g>
</g>
<g>
</g>
<g>
</g>
<g>
</g>
<g>
</g>
<g>
</g>
<g>
</g>
<g>
</g>
<g>
</g>
<g>
</g>
<g>
</g>
<g>
</g>
<g>
</g>
<g>
</g>
</svg>
