<?xml version="1.0" encoding="iso-8859-1"?>
<!-- Generator: Adobe Illustrator 19.0.0, SVG Export Plug-In . SVG Version: 6.00 Build 0)  -->
<svg version="1.1" id="Capa_1" xmlns="http://www.w3.org/2000/svg" xmlns:xlink="http://www.w3.org/1999/xlink" x="0px" y="0px"
	 viewBox="0 0 512.139 512.139" style="enable-background:new 0 0 512.139 512.139;" xml:space="preserve">
<g>
	<g>
		<g>
			<path d="M188.869,48.683l-14.976-28.272c-10.361,5.489-20.153,11.99-29.232,19.408l20.208,24.784
				C172.327,58.52,180.365,53.188,188.869,48.683z"/>
			<path d="M144.549,84.955l-24.752-20.288c-7.441,9.081-13.954,18.884-19.44,29.264l28.304,14.944
				C133.139,100.388,138.462,92.374,144.549,84.955z"/>
			<path d="M431.445,188.379c0.288-4.08,0.624-8.16,0.624-12.304C431.973,78.775,353.019-0.024,255.72,0.072
				c-16.669,0.016-33.251,2.398-49.251,7.075l9.008,30.72c76.329-22.331,156.31,21.443,178.641,97.772
				c3.485,11.911,5.415,24.222,5.743,36.628c-46.728-18.458-99.152-15.821-143.792,7.232c-44.613-23.055-97.01-25.715-143.728-7.296
				c0.257-12.416,2.112-24.747,5.52-36.688l-30.72-9.04c-4.702,16.113-7.083,32.815-7.072,49.6c0,4.144,0.336,8.224,0.624,12.304
				C-0.958,240.921-24.556,349.707,27.986,431.358c48.943,76.058,147.607,102.572,228.083,61.293
				c86.393,44.315,192.354,10.204,236.669-76.189C534.017,335.986,507.503,237.322,431.445,188.379z M336.069,192.075
				c21.055,0.017,41.846,4.694,60.88,13.696c-6.972,32.833-25.195,62.2-51.52,83.024c-9.669-34.604-29.683-65.426-57.36-88.336
				C303.472,194.94,319.707,192.104,336.069,192.075z M256.069,216.427c31.236,20.908,53.079,53.182,60.88,89.952
				c-38.533,18.261-83.227,18.261-121.76,0C202.99,269.609,224.833,237.335,256.069,216.427z M176.069,192.075
				c16.362,0.03,32.597,2.866,48,8.384c-27.66,22.917-47.656,53.738-57.312,88.336c-26.313-20.83-44.524-50.195-51.488-83.024
				C134.281,196.788,155.042,192.111,176.069,192.075z M176.069,480.075c-79.458,0.064-143.924-64.298-143.988-143.756
				c-0.036-44.03,20.092-85.652,54.628-112.964c11.618,41.361,37.923,77.064,73.984,100.416c-0.288,4.08-0.624,8.16-0.624,12.304
				c0.002,52.497,23.478,102.242,64,135.616C208.666,477.209,192.431,480.045,176.069,480.075z M256.069,455.723
				c-38.797-25.966-62.585-69.14-63.808-115.808c40.994,16.214,86.622,16.214,127.616,0
				C318.654,386.583,294.866,429.757,256.069,455.723z M449.033,425.447c-27.312,34.536-68.934,54.664-112.964,54.628
				c-16.362-0.03-32.597-2.866-48-8.384c40.523-33.374,63.998-83.119,64-135.616c0-4.144-0.336-8.224-0.624-12.304
				c36.061-23.352,62.366-59.055,73.984-100.416C487.753,272.643,498.321,363.122,449.033,425.447z"/>
		</g>
	</g>
</g>
<g>
</g>
<g>
</g>
<g>
</g>
<g>
</g>
<g>
</g>
<g>
</g>
<g>
</g>
<g>
</g>
<g>
</g>
<g>
</g>
<g>
</g>
<g>
</g>
<g>
</g>
<g>
</g>
<g>
</g>
</svg>
