<?xml version="1.0" encoding="iso-8859-1"?>
<!-- Generator: Adobe Illustrator 19.0.0, SVG Export Plug-In . SVG Version: 6.00 Build 0)  -->
<svg version="1.1" id="Capa_1" xmlns="http://www.w3.org/2000/svg" xmlns:xlink="http://www.w3.org/1999/xlink" x="0px" y="0px"
	 viewBox="0 0 495.658 495.658" style="enable-background:new 0 0 495.658 495.658;" xml:space="preserve">
<g>
	<g>
		<g>
			<path d="M247.606,315.326c0.705,3.863,1.037,7.785,0.992,11.712c0.094,21.24-8.372,41.622-23.488,56.544l-56.464,56.624
				c-31.259,31.268-81.948,31.275-113.216,0.016c-31.268-31.259-31.275-81.948-0.016-113.216l56.656-56.496
				c18.03-18.042,43.604-26.369,68.8-22.4l5.024-31.616c-35.327-5.585-71.194,6.066-96.496,31.344l-56.592,56.528
				c-43.741,43.741-43.741,114.659,0,158.4s114.659,43.741,158.4,0l56.496-56.528c21.166-20.905,33.023-49.451,32.896-79.2
				c0.045-5.953-0.491-11.895-1.6-17.744L247.606,315.326z"/>
			<path d="M348.454,40.142l-14-28.8c-11.217,5.458-21.439,12.759-30.24,21.6l22.736,22.512
				C333.213,49.185,340.481,44.009,348.454,40.142z"/>
			<path d="M400.47,33.87l6.704-31.296c-12.18-2.598-24.707-3.166-37.072-1.68l3.808,31.76
				C382.77,31.604,391.742,32.015,400.47,33.87z"/>
			<path d="M463.526,112.622h-0.048c-0.034,21.017-8.414,41.16-23.296,56l-56.656,56.496c-18.029,18.044-43.604,26.371-68.8,22.4
				l-4.992,31.616c5.822,0.917,11.706,1.378,17.6,1.376c29.597,0.083,57.997-11.682,78.864-32.672l56.704-56.544
				c43.73-43.81,43.666-114.775-0.143-158.505c-6.326-6.314-13.384-11.849-21.025-16.487l-16.608,27.344
				C449.197,58.254,463.79,84.466,463.526,112.622z"/>
			<path d="M248.086,180.862c-0.657-4.154-0.988-8.354-0.992-12.56c-0.021-21.108,8.402-41.347,23.392-56.208l33.776-33.856
				L281.606,55.63l-33.808,33.808c-21.004,20.844-32.797,49.225-32.752,78.816c0.001,5.893,0.461,11.778,1.376,17.6L248.086,180.862
				z"/>
			<rect x="39.233" y="79.826" transform="matrix(0.7071 0.7071 -0.7071 0.7071 95.8167 -39.6692)" width="113.121" height="32"/>
			<rect x="167.798" y="23.838" width="32" height="80"/>
			<rect x="23.798" y="167.838" width="80" height="32"/>
			
				<rect x="343.236" y="383.826" transform="matrix(-0.7071 -0.7071 0.7071 -0.7071 399.7748 965.2449)" width="113.121" height="32"/>
			<rect x="295.798" y="391.838" width="32" height="80"/>
			<rect x="391.798" y="295.838" width="80" height="32"/>
		</g>
	</g>
</g>
<g>
</g>
<g>
</g>
<g>
</g>
<g>
</g>
<g>
</g>
<g>
</g>
<g>
</g>
<g>
</g>
<g>
</g>
<g>
</g>
<g>
</g>
<g>
</g>
<g>
</g>
<g>
</g>
<g>
</g>
</svg>
