<?xml version="1.0" encoding="iso-8859-1"?>
<!-- Generator: Adobe Illustrator 19.0.0, SVG Export Plug-In . SVG Version: 6.00 Build 0)  -->
<svg version="1.1" id="Capa_1" xmlns="http://www.w3.org/2000/svg" xmlns:xlink="http://www.w3.org/1999/xlink" x="0px" y="0px"
	 viewBox="0 0 503.798 503.798" style="enable-background:new 0 0 503.798 503.798;" xml:space="preserve">
<g>
	<g>
		<g>
			<path d="M168.646,440.147c-31.259,31.268-81.948,31.275-113.216,0.016c-31.268-31.259-31.275-81.948-0.016-113.216l56.656-56.496
				c20.176-20.169,49.577-28.049,77.136-20.672l8.384-30.88c-38.634-10.387-79.874,0.622-108.192,28.88l-56.592,56.528
				c-43.741,43.741-43.741,114.659,0,158.4s114.659,43.741,158.4,0l33.28-33.28l-22.624-22.624L168.646,440.147z"/>
			<path d="M326.95,55.411c5.661-5.652,12.132-10.43,19.2-14.176l-14.912-28.304c-9.924,5.233-19.002,11.932-26.928,19.872
				l-2.288,2.288l22.672,22.592L326.95,55.411z"/>
			<path d="M383.59,32.019h0.112c4.775,0.003,9.541,0.431,14.24,1.28l5.712-31.488c-6.553-1.182-13.197-1.781-19.856-1.792
				c-5.552,0.32-11.552,0.432-17.2,1.296l4.8,31.632C375.433,32.331,379.508,32.021,383.59,32.019z"/>
			<path d="M440.166,168.707l-33.28,33.2l22.624,22.624l33.328-33.328c43.741-43.736,43.745-114.651,0.009-158.392
				c-7.203-7.204-15.356-13.392-24.233-18.392l-15.696,27.888c38.543,21.905,52.032,70.908,30.127,109.451
				C449.523,157.954,445.192,163.654,440.166,168.707z"/>
			<path d="M249.814,189.219c-7.443-27.573,0.444-57.022,20.672-77.184l31.6-31.68L279.43,57.763l-31.632,31.616
				c-21.043,20.906-32.848,49.362-32.784,79.024c0.004,9.822,1.295,19.601,3.84,29.088L249.814,189.219z"/>
			
				<rect x="231.812" y="112.005" transform="matrix(-0.7071 -0.7071 0.7071 -0.7071 247.8385 598.2046)" width="32" height="271.537"/>
			<path d="M375.798,247.779c-70.692,0-128,57.308-128,128s57.308,128,128,128s128-57.308,128-128
				C503.718,305.119,446.457,247.858,375.798,247.779z M375.798,471.779c-53.019,0-96-42.981-96-96s42.981-96,96-96s96,42.981,96,96
				C471.745,428.776,428.795,471.726,375.798,471.779z"/>
			<polygon points="412.486,316.467 375.798,353.155 339.11,316.467 316.486,339.091 353.174,375.779 316.486,412.467 
				339.11,435.091 375.798,398.403 412.486,435.091 435.11,412.467 398.422,375.779 435.11,339.091 			"/>
		</g>
	</g>
</g>
<g>
</g>
<g>
</g>
<g>
</g>
<g>
</g>
<g>
</g>
<g>
</g>
<g>
</g>
<g>
</g>
<g>
</g>
<g>
</g>
<g>
</g>
<g>
</g>
<g>
</g>
<g>
</g>
<g>
</g>
</svg>
