<?xml version="1.0" encoding="iso-8859-1"?>
<!-- Generator: Adobe Illustrator 19.0.0, SVG Export Plug-In . SVG Version: 6.00 Build 0)  -->
<svg version="1.1" id="Capa_1" xmlns="http://www.w3.org/2000/svg" xmlns:xlink="http://www.w3.org/1999/xlink" x="0px" y="0px"
	 viewBox="0 0 507.312 507.312" style="enable-background:new 0 0 507.312 507.312;" xml:space="preserve">
<g>
	<g>
		<g>
			<polygon points="507.312,411.312 484.688,388.688 448,425.376 411.312,388.688 388.688,411.312 425.376,448 388.688,484.688 
				411.312,507.312 448,470.624 484.688,507.312 507.312,484.688 470.624,448 			"/>
			<rect x="144" y="256" width="32" height="32"/>
			<polygon points="272,128 416,128 416,0 0,0 0,128 144,128 144,160 176,160 176,96 32,96 32,32 384,32 384,96 240,96 240,432 
				176,432 176,320 144,320 144,432 0,432 0,464 144,464 272,464 368,464 368,432 272,432 			"/>
			<rect x="144" y="192" width="32" height="32"/>
		</g>
	</g>
</g>
<g>
</g>
<g>
</g>
<g>
</g>
<g>
</g>
<g>
</g>
<g>
</g>
<g>
</g>
<g>
</g>
<g>
</g>
<g>
</g>
<g>
</g>
<g>
</g>
<g>
</g>
<g>
</g>
<g>
</g>
</svg>
