<?xml version="1.0" encoding="iso-8859-1"?>
<!-- Generator: Adobe Illustrator 19.0.0, SVG Export Plug-In . SVG Version: 6.00 Build 0)  -->
<svg version="1.1" id="Capa_1" xmlns="http://www.w3.org/2000/svg" xmlns:xlink="http://www.w3.org/1999/xlink" x="0px" y="0px"
	 viewBox="0 0 510.72 510.72" style="enable-background:new 0 0 510.72 510.72;" xml:space="preserve">
<g>
	<g>
		<g>
			<path d="M138,372.704l120.688-30.16L510.72,90.496L420.224,0L168.176,252.016L138,372.704z M420.224,45.248l45.248,45.248
				l-33.952,33.952L386.272,79.2L420.224,45.248z M363.648,101.824l45.248,45.248l-158.4,158.4l-45.264-45.264L363.648,101.824z
				 M191.296,291.52l27.904,27.904l-37.216,9.312L191.296,291.52z"/>
			<polygon points="32,85.344 155.088,208.432 177.712,185.808 0,8.096 0,158.72 32,158.72 			"/>
			<polygon points="302.288,355.632 425.376,478.72 32,478.72 32,318.72 0,318.72 0,510.72 502.624,510.72 324.912,333.008 			"/>
			<polygon points="116.368,260.272 138.992,237.648 64,162.656 64,446.72 348.064,446.72 273.072,371.728 250.448,394.352 
				270.816,414.72 96,414.72 96,239.904 			"/>
			<rect y="190.72" width="32" height="32"/>
			<rect y="254.72" width="32" height="32"/>
		</g>
	</g>
</g>
<g>
</g>
<g>
</g>
<g>
</g>
<g>
</g>
<g>
</g>
<g>
</g>
<g>
</g>
<g>
</g>
<g>
</g>
<g>
</g>
<g>
</g>
<g>
</g>
<g>
</g>
<g>
</g>
<g>
</g>
</svg>
