<?xml version="1.0" encoding="iso-8859-1"?>
<!-- Generator: Adobe Illustrator 19.0.0, SVG Export Plug-In . SVG Version: 6.00 Build 0)  -->
<svg version="1.1" id="Capa_1" xmlns="http://www.w3.org/2000/svg" xmlns:xlink="http://www.w3.org/1999/xlink" x="0px" y="0px"
	 viewBox="0 0 512 512" style="enable-background:new 0 0 512 512;" xml:space="preserve">
<g>
	<g>
		<g>
			<rect y="32" width="176" height="32"/>
			<rect x="208" y="32" width="32" height="32"/>
			<rect x="336" y="32" width="176" height="32"/>
			<rect x="272" y="32" width="32" height="32"/>
			<path d="M144,96H0v128h144V96z M112,192H32v-64h80V192z"/>
			<path d="M336,96H176v128h160V96z M304,192h-96v-64h96V192z"/>
			<path d="M368,224h144V96H368V224z M400,128h80v64h-80V128z"/>
			<rect x="272" y="288" width="32" height="32"/>
			<rect x="208" y="288" width="32" height="32"/>
			<rect y="288" width="176" height="32"/>
			<rect x="336" y="288" width="176" height="32"/>
			<path d="M0,480h144V352H0V480z M32,384h80v64H32V384z"/>
			<path d="M176,480h160V352H176V480z M208,384h96v64h-96V384z"/>
			<path d="M368,480h144V352H368V480z M400,384h80v64h-80V384z"/>
		</g>
	</g>
</g>
<g>
</g>
<g>
</g>
<g>
</g>
<g>
</g>
<g>
</g>
<g>
</g>
<g>
</g>
<g>
</g>
<g>
</g>
<g>
</g>
<g>
</g>
<g>
</g>
<g>
</g>
<g>
</g>
<g>
</g>
</svg>
