<?xml version="1.0" encoding="iso-8859-1"?>
<!-- Generator: Adobe Illustrator 19.0.0, SVG Export Plug-In . SVG Version: 6.00 Build 0)  -->
<svg version="1.1" id="Capa_1" xmlns="http://www.w3.org/2000/svg" xmlns:xlink="http://www.w3.org/1999/xlink" x="0px" y="0px"
	 viewBox="0 0 512 512" style="enable-background:new 0 0 512 512;" xml:space="preserve">
<g>
	<g>
		<g>
			<rect x="128" y="320" width="32" height="32"/>
			<polygon points="384,0 0,0 0,128 128,128 128,224 160,224 160,96 32,96 32,32 352,32 352,96 224,96 224,480 160,480 160,384 
				128,384 128,512 256,512 256,128 384,128 			"/>
			<rect x="128" y="256" width="32" height="32"/>
			<path d="M288,288v96h64v128h96V384h64v-96H288z M480,352h-64v128h-32V352h-64v-32h160V352z"/>
		</g>
	</g>
</g>
<g>
</g>
<g>
</g>
<g>
</g>
<g>
</g>
<g>
</g>
<g>
</g>
<g>
</g>
<g>
</g>
<g>
</g>
<g>
</g>
<g>
</g>
<g>
</g>
<g>
</g>
<g>
</g>
<g>
</g>
</svg>
