<?xml version="1.0" encoding="iso-8859-1"?>
<!-- Generator: Adobe Illustrator 19.0.0, SVG Export Plug-In . SVG Version: 6.00 Build 0)  -->
<svg version="1.1" id="Capa_1" xmlns="http://www.w3.org/2000/svg" xmlns:xlink="http://www.w3.org/1999/xlink" x="0px" y="0px"
	 viewBox="0 0 411.999 411.999" style="enable-background:new 0 0 411.999 411.999;" xml:space="preserve">
<g>
	<g>
		<g>
			<polygon points="411.999,96.679 411.999,0.679 315.999,0.679 315.999,32.679 379.999,32.679 379.999,64.679 315.999,64.679 
				315.999,160.679 411.999,160.679 411.999,128.679 347.999,128.679 347.999,96.679 			"/>
			<rect x="6.588" y="372.697" transform="matrix(-0.7474 -0.6644 0.6644 -0.7474 -218.7794 694.2087)" width="32" height="32"/>
			<rect x="49.151" y="324.874" transform="matrix(-0.7472 -0.6646 0.6646 -0.7472 -112.7257 638.8658)" width="32" height="32"/>
			<polygon points="256.031,102.039 139.999,232.583 23.967,102.039 0.031,123.319 118.591,256.679 85.071,294.375 109.007,315.639 
				139.999,280.759 256.031,411.319 279.967,390.039 161.407,256.679 279.967,123.319 			"/>
		</g>
	</g>
</g>
<g>
</g>
<g>
</g>
<g>
</g>
<g>
</g>
<g>
</g>
<g>
</g>
<g>
</g>
<g>
</g>
<g>
</g>
<g>
</g>
<g>
</g>
<g>
</g>
<g>
</g>
<g>
</g>
<g>
</g>
</svg>
