<?xml version="1.0" encoding="iso-8859-1"?>
<!-- Generator: Adobe Illustrator 19.0.0, SVG Export Plug-In . SVG Version: 6.00 Build 0)  -->
<svg version="1.1" id="Capa_1" xmlns="http://www.w3.org/2000/svg" xmlns:xlink="http://www.w3.org/1999/xlink" x="0px" y="0px"
	 viewBox="0 0 512 512" style="enable-background:new 0 0 512 512;" xml:space="preserve">
<g>
	<g>
		<g>
			<path d="M192,512h128V400H192V512z M224,432h64v48h-64V432z"/>
			<path d="M192,240h128V128h144V0H48v128h144V240z M80,96V32h352v64H288v112h-64V96H80z"/>
			<rect x="96" y="272" width="32" height="32"/>
			<polygon points="224,272 224,304 480,304 480,336 32,336 32,304 64,304 64,272 0,272 0,368 512,368 512,272 			"/>
			<rect x="160" y="272" width="32" height="32"/>
		</g>
	</g>
</g>
<g>
</g>
<g>
</g>
<g>
</g>
<g>
</g>
<g>
</g>
<g>
</g>
<g>
</g>
<g>
</g>
<g>
</g>
<g>
</g>
<g>
</g>
<g>
</g>
<g>
</g>
<g>
</g>
<g>
</g>
</svg>
