<?xml version="1.0" encoding="iso-8859-1"?>
<!-- Generator: Adobe Illustrator 19.0.0, SVG Export Plug-In . SVG Version: 6.00 Build 0)  -->
<svg version="1.1" id="Capa_1" xmlns="http://www.w3.org/2000/svg" xmlns:xlink="http://www.w3.org/1999/xlink" x="0px" y="0px"
	 viewBox="0 0 512 512" style="enable-background:new 0 0 512 512;" xml:space="preserve">
<g>
	<g>
		<g>
			<polygon points="2.344,68.688 24.968,91.312 45.656,70.624 45.656,160 77.656,160 77.656,70.624 98.344,91.312 120.968,68.688 
				61.656,9.376 			"/>
			<rect x="157.656" width="352" height="32"/>
			<rect x="157.656" y="80" width="352" height="32"/>
			<rect x="157.656" y="160" width="128" height="32"/>
			<rect x="157.656" y="320" width="352" height="32"/>
			<rect x="157.656" y="400" width="352" height="32"/>
			<rect x="157.656" y="480" width="128" height="32"/>
			<rect x="45.656" y="192" width="32" height="32"/>
			<polygon points="77.656,441.376 77.656,352 45.656,352 45.656,441.376 24.968,420.688 2.344,443.312 61.656,502.624 
				120.968,443.312 98.344,420.688 			"/>
			<rect x="45.656" y="288" width="32" height="32"/>
			<rect x="317.656" y="160" width="32" height="32"/>
			<rect x="381.656" y="160" width="32" height="32"/>
			<rect x="317.656" y="480" width="32" height="32"/>
			<rect x="381.656" y="480" width="32" height="32"/>
		</g>
	</g>
</g>
<g>
</g>
<g>
</g>
<g>
</g>
<g>
</g>
<g>
</g>
<g>
</g>
<g>
</g>
<g>
</g>
<g>
</g>
<g>
</g>
<g>
</g>
<g>
</g>
<g>
</g>
<g>
</g>
<g>
</g>
</svg>
