<?xml version="1.0" encoding="iso-8859-1"?>
<!-- Generator: Adobe Illustrator 19.0.0, SVG Export Plug-In . SVG Version: 6.00 Build 0)  -->
<svg version="1.1" id="Capa_1" xmlns="http://www.w3.org/2000/svg" xmlns:xlink="http://www.w3.org/1999/xlink" x="0px" y="0px"
	 viewBox="0 0 492.162 492.162" style="enable-background:new 0 0 492.162 492.162;" xml:space="preserve">
<g>
	<g>
		<g>
			<rect x="431.441" y="6.627" transform="matrix(0.7071 0.7071 -0.7071 0.7071 147.0525 -309.7611)" width="32" height="32"/>
			<rect x="386.256" y="51.864" transform="matrix(0.7071 0.7071 -0.7071 0.7071 165.8053 -264.5611)" width="32" height="32"/>
			<path d="M468.881,204.914l-47.328,47.328l-90.512-90.528l48.56-48.608l-22.608-22.56L229.249,218.354l22.608,22.608l-251.2,251.2
				l310.64-56.48l12.192-85.344l18.864-18.864l22.64,22.624l126.512-126.512L468.881,204.914z M293.329,335.25l-10.432,73.072
				l-187.2,34.016l178.784-178.752l45.264,45.328L293.329,335.25z M364.993,308.914l-90.48-90.56l33.904-33.952l90.512,90.512
				L364.993,308.914z"/>
		</g>
	</g>
</g>
<g>
</g>
<g>
</g>
<g>
</g>
<g>
</g>
<g>
</g>
<g>
</g>
<g>
</g>
<g>
</g>
<g>
</g>
<g>
</g>
<g>
</g>
<g>
</g>
<g>
</g>
<g>
</g>
<g>
</g>
</svg>
