<?xml version="1.0" encoding="iso-8859-1"?>
<!-- Generator: Adobe Illustrator 19.0.0, SVG Export Plug-In . SVG Version: 6.00 Build 0)  -->
<svg version="1.1" id="Capa_1" xmlns="http://www.w3.org/2000/svg" xmlns:xlink="http://www.w3.org/1999/xlink" x="0px" y="0px"
	 viewBox="0 0 512.109 512.109" style="enable-background:new 0 0 512.109 512.109;" xml:space="preserve">
<g>
	<g>
		<g>
			<path d="M408.007,208.055c57.438,0,104-46.562,104-104s-46.562-104-104-104s-104,46.562-104,104
				C304.078,161.463,350.599,207.984,408.007,208.055z M408.007,32.055c39.765,0,72,32.235,72,72c0,39.764-32.235,72-72,72
				c-39.764,0-72-32.236-72-72C336.051,64.308,368.261,32.099,408.007,32.055z"/>
			<path d="M154.567,364.407c-20.854-40.13-70.292-55.757-110.422-34.902c-40.13,20.854-55.757,70.292-34.902,110.422
				c14.107,27.147,42.171,44.166,72.765,44.128h66c33.137,0.039,60.032-26.792,60.071-59.929
				C208.114,393.473,185.04,367.722,154.567,364.407z M148.007,451.991v0.064h-66c-27.614,0.142-50.115-22.128-50.257-49.742
				c-0.142-27.614,22.128-50.115,49.742-50.257c21.387-0.11,40.476,13.395,47.491,33.599l4.064,11.696l14.96-1.36
				c15.464,0,28,12.536,28,28C176.007,439.455,163.471,451.991,148.007,451.991z"/>
			<rect x="240.007" y="0.055" width="32" height="208"/>
			<rect x="240.007" y="304.055" width="32" height="208"/>
			<path d="M494.599,323.767c-23.742-22.617-61.058-22.617-84.8,0l-1.6,1.6l-1.6-1.6c-23.739-22.625-61.061-22.625-84.8,0
				c-23.238,23.366-23.359,61.077-0.272,84.592c18.88,19.792,74.192,81.728,74.752,82.352l11.936,13.36l11.936-13.36
				c0.56-0.624,55.888-62.56,74.752-82.368C517.962,384.817,517.827,347.126,494.599,323.767z M472.32,385.639
				c-0.207,0.211-0.418,0.419-0.632,0.623h0c-13.904,14.592-45.984,50.224-63.52,69.808c-17.6-19.584-49.6-55.216-63.52-69.792
				c-10.993-10.981-11.114-28.759-0.272-39.888c10.933-10.925,28.651-10.925,39.584,0l24.208,24.208l24.208-24.208
				c10.838-11.03,28.566-11.186,39.596-0.348C483.002,356.881,483.158,374.609,472.32,385.639z"/>
			<path d="M112.007,12.279L14.119,208.055h195.776L112.007,12.279z M112.007,83.831l46.112,92.224H65.895L112.007,83.831z"/>
			<rect x="336.007" y="240.055" width="176" height="32"/>
			<rect x="0.007" y="240.055" width="176" height="32"/>
			<rect x="208.007" y="240.055" width="32" height="32"/>
			<rect x="272.007" y="240.055" width="32" height="32"/>
		</g>
	</g>
</g>
<g>
</g>
<g>
</g>
<g>
</g>
<g>
</g>
<g>
</g>
<g>
</g>
<g>
</g>
<g>
</g>
<g>
</g>
<g>
</g>
<g>
</g>
<g>
</g>
<g>
</g>
<g>
</g>
<g>
</g>
</svg>
