<?xml version="1.0" encoding="iso-8859-1"?>
<!-- Generator: Adobe Illustrator 19.0.0, SVG Export Plug-In . SVG Version: 6.00 Build 0)  -->
<svg version="1.1" id="Capa_1" xmlns="http://www.w3.org/2000/svg" xmlns:xlink="http://www.w3.org/1999/xlink" x="0px" y="0px"
	 viewBox="0 0 511.991 511.991" style="enable-background:new 0 0 511.991 511.991;" xml:space="preserve">
<g>
	<g>
		<g>
			<rect x="243.606" y="234.284" transform="matrix(-0.8716 -0.4902 0.4902 -0.8716 363.1794 595.6959)" width="32" height="32"/>
			<polygon points="349.376,319.212 383.36,338.316 176,454.956 176,221.676 209.92,240.748 225.616,212.876 144,166.956 
				144,509.676 448.64,338.316 365.056,291.308 			"/>
			<rect x="299.387" y="265.763" transform="matrix(0.49 -0.8717 0.8717 0.49 -84.7785 418.6108)" width="32" height="32"/>
			<polygon points="32,130.316 256,130.316 256,194.316 288,194.316 288,98.316 0,98.316 0,386.316 112,386.316 112,354.316 
				32,354.316 			"/>
			<path d="M476.623,67.211C444.799,26.271,395.854,2.321,344,2.316c-42.729-0.099-83.873,16.173-114.976,45.472l21.952,23.328
				c54.728-51.444,140.797-48.782,192.241,5.946c51.444,54.728,48.782,140.797-5.946,192.241c-3.132,2.944-6.402,5.739-9.799,8.373
				l19.616,25.28C520.343,246.012,533.566,140.466,476.623,67.211z"/>
		</g>
	</g>
</g>
<g>
</g>
<g>
</g>
<g>
</g>
<g>
</g>
<g>
</g>
<g>
</g>
<g>
</g>
<g>
</g>
<g>
</g>
<g>
</g>
<g>
</g>
<g>
</g>
<g>
</g>
<g>
</g>
<g>
</g>
</svg>
