<?xml version="1.0" encoding="iso-8859-1"?>
<!-- Generator: Adobe Illustrator 19.0.0, SVG Export Plug-In . SVG Version: 6.00 Build 0)  -->
<svg version="1.1" id="Capa_1" xmlns="http://www.w3.org/2000/svg" xmlns:xlink="http://www.w3.org/1999/xlink" x="0px" y="0px"
	 viewBox="0 0 512 512" style="enable-background:new 0 0 512 512;" xml:space="preserve">
<g>
	<g>
		<g>
			<path d="M384,0v48h-48v32h48v48h48v48h32v-48h48V0H384z M480,96h-64V32h64V96z"/>
			<path d="M128,384H80v-48H48v48H0v128h128v-48h48v-32h-48V384z M96,480H32v-64h64V480z"/>
			<rect x="208" y="48" width="32" height="32"/>
			<rect x="272" y="48" width="32" height="32"/>
			<rect x="208" y="432" width="32" height="32"/>
			<rect x="272" y="432" width="32" height="32"/>
			<path d="M48,176h32v-48h48V80h48V48h-48V0H0v128h48V176z M32,96V32h64v64H32z"/>
			<rect x="48" y="208" width="32" height="32"/>
			<rect x="48" y="272" width="32" height="32"/>
			<rect x="432" y="208" width="32" height="32"/>
			<rect x="432" y="272" width="32" height="32"/>
			<path d="M464,336h-32v48h-48v48h-48v32h48v48h128V384h-48V336z M480,416v64h-64v-64H480z"/>
			<path d="M352,384V224c0-53.019-42.981-96-96-96s-96,42.981-96,96v160h32v-96h128v96H352z M192,256v-32c0-35.346,28.654-64,64-64
				c35.346,0,64,28.654,64,64v32H192z"/>
		</g>
	</g>
</g>
<g>
</g>
<g>
</g>
<g>
</g>
<g>
</g>
<g>
</g>
<g>
</g>
<g>
</g>
<g>
</g>
<g>
</g>
<g>
</g>
<g>
</g>
<g>
</g>
<g>
</g>
<g>
</g>
<g>
</g>
</svg>
