<?xml version="1.0" encoding="iso-8859-1"?>
<!-- Generator: Adobe Illustrator 19.0.0, SVG Export Plug-In . SVG Version: 6.00 Build 0)  -->
<svg version="1.1" id="Capa_1" xmlns="http://www.w3.org/2000/svg" xmlns:xlink="http://www.w3.org/1999/xlink" x="0px" y="0px"
	 viewBox="0 0 507.312 507.312" style="enable-background:new 0 0 507.312 507.312;" xml:space="preserve">
<g>
	<g>
		<g>
			<rect x="408.968" y="416" width="32" height="32"/>
			<rect x="472.968" y="416" width="32" height="32"/>
			<polygon points="100.28,379.312 77.656,356.688 2.344,432 77.656,507.312 100.28,484.688 63.592,448 376.968,448 376.968,416 
				63.592,416 			"/>
			<path d="M24.968,128c0.079,70.66,57.34,127.921,128,128h32v128h32V32h64v352h32V32h64V0h-224
				C82.308,0.079,25.047,57.34,24.968,128z M184.968,224h-32c-53.019,0-96-42.981-96-96s42.981-96,96-96h32V224z"/>
		</g>
	</g>
</g>
<g>
</g>
<g>
</g>
<g>
</g>
<g>
</g>
<g>
</g>
<g>
</g>
<g>
</g>
<g>
</g>
<g>
</g>
<g>
</g>
<g>
</g>
<g>
</g>
<g>
</g>
<g>
</g>
<g>
</g>
</svg>
