<?xml version="1.0" encoding="iso-8859-1"?>
<!-- Generator: Adobe Illustrator 19.0.0, SVG Export Plug-In . SVG Version: 6.00 Build 0)  -->
<svg version="1.1" id="Capa_1" xmlns="http://www.w3.org/2000/svg" xmlns:xlink="http://www.w3.org/1999/xlink" x="0px" y="0px"
	 viewBox="0 0 512 512" style="enable-background:new 0 0 512 512;" xml:space="preserve">
<g>
	<g>
		<g>
			<path d="M272,32h48V0H128C57.308,0,0,57.308,0,128s57.308,128,128,128h32v224h-48v32h208v-32h-48V32z M160,224h-32
				c-53.019,0-96-42.981-96-96s42.981-96,96-96h32V224z M240,480h-48V32h48V480z"/>
			<rect x="480" y="272" width="32" height="32"/>
			<polygon points="411.312,235.312 388.688,212.688 313.376,288 388.688,363.312 411.312,340.688 374.624,304 448,304 448,272 
				374.624,272 			"/>
		</g>
	</g>
</g>
<g>
</g>
<g>
</g>
<g>
</g>
<g>
</g>
<g>
</g>
<g>
</g>
<g>
</g>
<g>
</g>
<g>
</g>
<g>
</g>
<g>
</g>
<g>
</g>
<g>
</g>
<g>
</g>
<g>
</g>
</svg>
