<?xml version="1.0" encoding="iso-8859-1"?>
<!-- Generator: Adobe Illustrator 19.0.0, SVG Export Plug-In . SVG Version: 6.00 Build 0)  -->
<svg version="1.1" id="Capa_1" xmlns="http://www.w3.org/2000/svg" xmlns:xlink="http://www.w3.org/1999/xlink" x="0px" y="0px"
	 viewBox="0 0 512 512" style="enable-background:new 0 0 512 512;" xml:space="preserve">
<g>
	<g>
		<g>
			<polygon points="63.664,131.552 41.04,108.928 0,149.968 0,362.032 41.04,403.072 63.664,380.448 32,348.784 32,163.216 			"/>
			<polygon points="348.784,480 163.216,480 131.552,448.336 108.928,470.96 149.968,512 362.032,512 403.072,470.96 
				380.448,448.336 			"/>
			<polygon points="470.96,108.928 448.336,131.552 480,163.216 480,348.784 448.336,380.448 470.96,403.072 512,362.032 
				512,149.968 			"/>
			<polygon points="149.968,0 108.928,41.04 131.552,63.664 163.216,32 348.784,32 380.448,63.664 403.072,41.04 362.032,0 			"/>
			<path d="M304,64h-96v256h96V64z M272,288h-32V96h32V288z"/>
			<path d="M208,448h96v-96h-96V448z M240,384h32v32h-32V384z"/>
			<rect x="70.309" y="70.304" transform="matrix(0.7071 0.7071 -0.7071 0.7071 86.3056 -35.7517)" width="32" height="32"/>
			<rect x="409.73" y="409.696" transform="matrix(-0.7071 -0.7071 0.7071 -0.7071 425.7539 1027.7454)" width="32" height="32"/>
			<rect x="70.308" y="409.711" transform="matrix(0.7071 -0.7071 0.7071 0.7071 -275.7444 185.717)" width="32" height="32"/>
			<rect x="409.716" y="70.289" transform="matrix(0.7071 0.7071 -0.7071 0.7071 185.7049 -275.7529)" width="32" height="32"/>
		</g>
	</g>
</g>
<g>
</g>
<g>
</g>
<g>
</g>
<g>
</g>
<g>
</g>
<g>
</g>
<g>
</g>
<g>
</g>
<g>
</g>
<g>
</g>
<g>
</g>
<g>
</g>
<g>
</g>
<g>
</g>
<g>
</g>
</svg>
