<?xml version="1.0" encoding="iso-8859-1"?>
<!-- Generator: Adobe Illustrator 19.0.0, SVG Export Plug-In . SVG Version: 6.00 Build 0)  -->
<svg version="1.1" id="Capa_1" xmlns="http://www.w3.org/2000/svg" xmlns:xlink="http://www.w3.org/1999/xlink" x="0px" y="0px"
	 viewBox="0 0 411.979 411.979" style="enable-background:new 0 0 411.979 411.979;" xml:space="preserve">
<g>
	<g>
		<g>
			<polygon points="411.979,347.31 411.979,251.31 315.979,251.31 315.979,283.31 379.979,283.31 379.979,315.31 315.979,315.31 
				315.979,411.31 411.979,411.31 411.979,379.31 347.979,379.31 347.979,347.31 			"/>
			<rect x="49.131" y="223.507" transform="matrix(-0.7472 -0.6646 0.6646 -0.7472 -45.3893 461.7484)" width="32" height="32"/>
			<rect x="6.588" y="271.358" transform="matrix(-0.7474 -0.6644 0.6644 -0.7474 -151.4497 517.1317)" width="32" height="32"/>
			<polygon points="256.011,0.67 139.979,131.214 23.947,0.67 0.011,21.95 118.571,155.31 85.051,193.006 108.987,214.27 
				139.979,179.39 256.011,309.95 279.947,288.67 161.387,155.31 279.947,21.95 			"/>
		</g>
	</g>
</g>
<g>
</g>
<g>
</g>
<g>
</g>
<g>
</g>
<g>
</g>
<g>
</g>
<g>
</g>
<g>
</g>
<g>
</g>
<g>
</g>
<g>
</g>
<g>
</g>
<g>
</g>
<g>
</g>
<g>
</g>
</svg>
