<?xml version="1.0" encoding="iso-8859-1"?>
<!-- Generator: Adobe Illustrator 19.0.0, SVG Export Plug-In . SVG Version: 6.00 Build 0)  -->
<svg version="1.1" id="Capa_1" xmlns="http://www.w3.org/2000/svg" xmlns:xlink="http://www.w3.org/1999/xlink" x="0px" y="0px"
	 viewBox="0 0 512 512" style="enable-background:new 0 0 512 512;" xml:space="preserve">
<g>
	<g>
		<g>
			<path d="M191.664,41.368L182.4,10.712c-10.92,3.277-21.61,7.275-32,11.968l13.2,29.152
				C172.712,47.725,182.087,44.229,191.664,41.368z"/>
			<path d="M137.408,65.944l-16.976-27.2c-9.645,6.063-18.876,12.76-27.632,20.048l20.416,24.624
				C120.882,77.06,128.964,71.223,137.408,65.944z"/>
			<path d="M32,255.976c-0.063-56.367,21.207-110.67,59.536-152l-23.488-21.76C-27.939,186.024-21.6,347.99,82.208,443.978
				C97.3,457.932,114.018,470.019,132,479.976H0v32h208v-36.8l-11.744-3.2C99.27,444.944,32.134,356.658,32,255.976z"/>
			<path d="M512,255.976C511.859,114.476,397.036-0.117,255.536,0.024c-13.331,0.013-26.641,1.067-39.808,3.152l5.072,31.568
				c122.072-20.077,237.306,62.605,257.384,184.677c18.649,113.389-51.528,222.498-162.44,252.555l-11.744,3.2v36.8h208v-32H380
				C461.326,434.731,511.822,349.04,512,255.976z"/>
		</g>
	</g>
</g>
<g>
</g>
<g>
</g>
<g>
</g>
<g>
</g>
<g>
</g>
<g>
</g>
<g>
</g>
<g>
</g>
<g>
</g>
<g>
</g>
<g>
</g>
<g>
</g>
<g>
</g>
<g>
</g>
<g>
</g>
</svg>
