<?xml version="1.0" encoding="iso-8859-1"?>
<!-- Generator: Adobe Illustrator 19.0.0, SVG Export Plug-In . SVG Version: 6.00 Build 0)  -->
<svg version="1.1" id="Capa_1" xmlns="http://www.w3.org/2000/svg" xmlns:xlink="http://www.w3.org/1999/xlink" x="0px" y="0px"
	 viewBox="0 0 512 512" style="enable-background:new 0 0 512 512;" xml:space="preserve">
<g>
	<g>
		<g>
			<polygon points="20.688,36.688 43.312,59.312 64,38.624 64,128 96,128 96,0 57.376,0 			"/>
			<polygon points="0,384 64,384 64,416 32,416 32,448 64,448 64,480 0,480 0,512 96,512 96,352 0,352 			"/>
			<polygon points="0,192 64,192 64,224 0,224 0,320 96,320 96,288 32,288 32,256 96,256 96,160 0,160 			"/>
			<rect x="416" y="416" width="32" height="32"/>
			<rect x="480" y="416" width="32" height="32"/>
			<rect x="160" y="416" width="224" height="32"/>
			<rect x="160" y="224" width="224" height="32"/>
			<rect x="416" y="224" width="32" height="32"/>
			<rect x="480" y="224" width="32" height="32"/>
			<rect x="480" y="64" width="32" height="32"/>
			<rect x="160" y="64" width="224" height="32"/>
			<rect x="416" y="64" width="32" height="32"/>
		</g>
	</g>
</g>
<g>
</g>
<g>
</g>
<g>
</g>
<g>
</g>
<g>
</g>
<g>
</g>
<g>
</g>
<g>
</g>
<g>
</g>
<g>
</g>
<g>
</g>
<g>
</g>
<g>
</g>
<g>
</g>
<g>
</g>
</svg>
