<?xml version="1.0" encoding="iso-8859-1"?>
<!-- Generator: Adobe Illustrator 19.0.0, SVG Export Plug-In . SVG Version: 6.00 Build 0)  -->
<svg version="1.1" id="Capa_1" xmlns="http://www.w3.org/2000/svg" xmlns:xlink="http://www.w3.org/1999/xlink" x="0px" y="0px"
	 viewBox="0 0 512 512" style="enable-background:new 0 0 512 512;" xml:space="preserve">
<g>
	<g>
		<g>
			<rect x="131.952" y="480" width="32" height="32"/>
			<rect x="195.952" y="480" width="32" height="32"/>
			<polygon points="323.952,480 259.952,480 259.952,512 355.952,512 355.952,416 323.952,416 			"/>
			<polygon points="35.952,64 67.952,64 67.952,96 99.952,96 99.952,64 131.952,64 131.952,96 163.952,96 163.952,64 195.952,64 
				195.952,96 227.952,96 227.952,64 259.952,64 259.952,96 291.952,96 291.952,64 323.952,64 323.952,128 355.952,128 355.952,32 
				291.952,32 291.952,0 259.952,0 259.952,32 227.952,32 227.952,0 195.952,0 195.952,32 163.952,32 163.952,0 131.952,0 
				131.952,32 99.952,32 99.952,0 67.952,0 67.952,32 3.952,32 3.952,512 99.952,512 99.952,480 35.952,480 			"/>
			<path d="M157.968,454l120.688-30.176l229.392-229.408l-90.496-90.512L188.128,333.312L157.968,454z M417.552,149.152
				l45.248,45.264l-22.624,22.624l-45.264-45.248L417.552,149.152z M372.288,194.416l45.264,45.248L270.464,386.752L225.2,341.488
				L372.288,194.416z M211.248,372.8l27.904,27.904L201.92,410L211.248,372.8z"/>
			<rect x="131.952" y="144" width="160" height="32"/>
			<rect x="67.952" y="208" width="160" height="32"/>
			<rect x="67.952" y="272" width="96" height="32"/>
			<rect x="67.952" y="336" width="64" height="32"/>
			<rect x="67.952" y="400" width="64" height="32"/>
		</g>
	</g>
</g>
<g>
</g>
<g>
</g>
<g>
</g>
<g>
</g>
<g>
</g>
<g>
</g>
<g>
</g>
<g>
</g>
<g>
</g>
<g>
</g>
<g>
</g>
<g>
</g>
<g>
</g>
<g>
</g>
<g>
</g>
</svg>
