<?xml version="1.0" encoding="iso-8859-1"?>
<!-- Generator: Adobe Illustrator 19.0.0, SVG Export Plug-In . SVG Version: 6.00 Build 0)  -->
<svg version="1.1" id="Capa_1" xmlns="http://www.w3.org/2000/svg" xmlns:xlink="http://www.w3.org/1999/xlink" x="0px" y="0px"
	 viewBox="0 0 512 512" style="enable-background:new 0 0 512 512;" xml:space="preserve">
<g>
	<g>
		<g>
			<path d="M464,96H352V80c0-26.51-21.49-48-48-48h-96c-26.51,0-48,21.49-48,48v16H48c-26.51,0-48,21.49-48,48v16h32v-16
				c0-8.837,7.163-16,16-16h416c8.837,0,16,7.163,16,16v288c0,8.837-7.163,16-16,16H48c-8.837,0-16-7.163-16-16V320H0v112
				c0,26.51,21.49,48,48,48h416c26.51,0,48-21.49,48-48V144C512,117.49,490.51,96,464,96z M320,96H192V80c0-8.837,7.163-16,16-16h96
				c8.837,0,16,7.163,16,16V96z"/>
			<polygon points="219.312,395.312 326.624,288 219.312,180.688 196.688,203.312 281.376,288 196.688,372.688 			"/>
			<rect y="192" width="32" height="32"/>
			<rect y="256" width="32" height="32"/>
		</g>
	</g>
</g>
<g>
</g>
<g>
</g>
<g>
</g>
<g>
</g>
<g>
</g>
<g>
</g>
<g>
</g>
<g>
</g>
<g>
</g>
<g>
</g>
<g>
</g>
<g>
</g>
<g>
</g>
<g>
</g>
<g>
</g>
</svg>
