<?xml version="1.0" encoding="iso-8859-1"?>
<!-- Generator: Adobe Illustrator 19.0.0, SVG Export Plug-In . SVG Version: 6.00 Build 0)  -->
<svg version="1.1" id="Capa_1" xmlns="http://www.w3.org/2000/svg" xmlns:xlink="http://www.w3.org/1999/xlink" x="0px" y="0px"
	 viewBox="0 0 512 512" style="enable-background:new 0 0 512 512;" xml:space="preserve">
<g>
	<g>
		<g>
			<rect x="208" width="32" height="32"/>
			<rect x="272" width="32" height="32"/>
			<path d="M336,0v32h144v320H343.44l-32,48H200.56l-32-48H32V32h144V0H0v512h512V0H336z M480,480H32v-96h119.44l32,48h145.12l32-48
				H480V480z"/>
			<path d="M256,346.672L384,176h-64V64H192v112h-64L256,346.672z M224,208V96h64v112h32l-64,85.328L192,208H224z"/>
			<rect x="64" y="64" width="32" height="256"/>
			<rect x="416" y="64" width="32" height="256"/>
		</g>
	</g>
</g>
<g>
</g>
<g>
</g>
<g>
</g>
<g>
</g>
<g>
</g>
<g>
</g>
<g>
</g>
<g>
</g>
<g>
</g>
<g>
</g>
<g>
</g>
<g>
</g>
<g>
</g>
<g>
</g>
<g>
</g>
</svg>
