<?xml version="1.0" encoding="iso-8859-1"?>
<!-- Generator: Adobe Illustrator 19.0.0, SVG Export Plug-In . SVG Version: 6.00 Build 0)  -->
<svg version="1.1" id="Capa_1" xmlns="http://www.w3.org/2000/svg" xmlns:xlink="http://www.w3.org/1999/xlink" x="0px" y="0px"
	 viewBox="0 0 495.584 495.584" style="enable-background:new 0 0 495.584 495.584;" xml:space="preserve">
<g>
	<g>
		<g>
			<path d="M245.872,306.507c1.832,6.698,2.737,13.616,2.688,20.56c0.13,21.208-8.291,41.573-23.36,56.496l-56.576,56.576
				c-31.38,31.104-82.032,30.88-113.136-0.499c-30.91-31.184-30.91-81.453,0-112.637l56.576-56.576
				c20.202-20.149,49.605-28.013,77.168-20.64l8.336-30.896c-38.629-10.349-79.847,0.668-108.16,28.912l-56.544,56.576
				c-43.741,43.741-43.741,114.659,0,158.4c43.741,43.741,114.659,43.741,158.4,0l56.544-56.576
				c21.114-20.92,32.913-49.462,32.736-79.184c0.034-9.82-1.263-19.6-3.856-29.072L245.872,306.507z"/>
			<path d="M462.784,32.827v0.016c-5.705-5.713-12.014-10.788-18.816-15.136l-17.232,26.896c4.847,3.117,9.347,6.743,13.424,10.816
				c31.144,31.282,31.144,81.854,0,113.136l-56.576,56.576c-20.252,20.072-49.616,27.925-77.184,20.64l-8.32,30.896
				c38.611,10.404,79.839-0.602,108.128-28.864l56.576-56.576C506.44,147.45,506.44,76.603,462.784,32.827z"/>
			<path d="M383.68,32.075c6.279-0.003,12.536,0.739,18.64,2.208l7.456-31.136c-8.544-2.036-17.297-3.067-26.08-3.072
				c-3.656-0.189-7.322-0.018-10.944,0.512l3.056,31.872C378.416,32.203,381.616,32.155,383.68,32.075z"/>
			<path d="M350.208,39.339L336.88,10.251c-11.356,5.196-21.757,12.265-30.768,20.912l22.16,23.04
				C334.7,48.054,342.115,43.03,350.208,39.339z"/>
			<path d="M249.808,189.195c-7.408-27.558,0.462-56.974,20.64-77.152l35.408-35.44l-22.624-22.592l-35.424,35.392
				c-28.279,28.286-39.303,69.52-28.912,108.144L249.808,189.195z"/>
			
				<rect x="231.822" y="112.028" transform="matrix(-0.7071 -0.7071 0.7071 -0.7071 247.8393 598.2523)" width="32" height="271.537"/>
		</g>
	</g>
</g>
<g>
</g>
<g>
</g>
<g>
</g>
<g>
</g>
<g>
</g>
<g>
</g>
<g>
</g>
<g>
</g>
<g>
</g>
<g>
</g>
<g>
</g>
<g>
</g>
<g>
</g>
<g>
</g>
<g>
</g>
</svg>
