<?xml version="1.0" encoding="iso-8859-1"?>
<!-- Generator: Adobe Illustrator 19.0.0, SVG Export Plug-In . SVG Version: 6.00 Build 0)  -->
<svg version="1.1" id="Capa_1" xmlns="http://www.w3.org/2000/svg" xmlns:xlink="http://www.w3.org/1999/xlink" x="0px" y="0px"
	 viewBox="0 0 513.92 513.92" style="enable-background:new 0 0 513.92 513.92;" xml:space="preserve">
<g>
	<g>
		<g>
			<rect x="0.96" y="240" width="32" height="32"/>
			<polygon points="117.648,203.312 154.336,240 64.96,240 64.96,272 154.336,272 117.648,308.688 140.272,331.312 215.584,256 
				140.272,180.688 			"/>
			<rect x="224.96" width="32" height="32"/>
			<rect x="224.96" y="64" width="288" height="32"/>
			<rect x="0.96" y="66" width="192" height="32"/>
			<rect x="224.96" y="481.92" width="32" height="32"/>
			<rect x="224.96" y="417.92" width="288" height="32"/>
			<rect x="0.96" y="416" width="192" height="32"/>
			<rect x="256.96" y="144" width="160" height="32"/>
			<rect x="256.96" y="208" width="224" height="32"/>
			<rect x="256.96" y="272" width="96" height="32"/>
			<rect x="256.96" y="336" width="192" height="32"/>
		</g>
	</g>
</g>
<g>
</g>
<g>
</g>
<g>
</g>
<g>
</g>
<g>
</g>
<g>
</g>
<g>
</g>
<g>
</g>
<g>
</g>
<g>
</g>
<g>
</g>
<g>
</g>
<g>
</g>
<g>
</g>
<g>
</g>
</svg>
