<?xml version="1.0" encoding="iso-8859-1"?>
<!-- Generator: Adobe Illustrator 19.0.0, SVG Export Plug-In . SVG Version: 6.00 Build 0)  -->
<svg version="1.1" id="Capa_1" xmlns="http://www.w3.org/2000/svg" xmlns:xlink="http://www.w3.org/1999/xlink" x="0px" y="0px"
	 viewBox="0 0 512 512" style="enable-background:new 0 0 512 512;" xml:space="preserve">
<g>
	<g>
		<g>
			<path d="M512,32V0H320c-70.692,0-128,57.308-128,128s57.308,128,128,128h32v224h-48v32h208v-32h-48V32H512z M352,224h-32
				c-53.019,0-96-42.981-96-96s42.981-96,96-96h32V224z M432,480h-48V32h48V480z"/>
			<rect y="272" width="32" height="32"/>
			<polygon points="116.688,235.312 153.376,272 64,272 64,304 153.376,304 116.688,340.688 139.312,363.312 214.624,288 
				139.312,212.688 			"/>
		</g>
	</g>
</g>
<g>
</g>
<g>
</g>
<g>
</g>
<g>
</g>
<g>
</g>
<g>
</g>
<g>
</g>
<g>
</g>
<g>
</g>
<g>
</g>
<g>
</g>
<g>
</g>
<g>
</g>
<g>
</g>
<g>
</g>
</svg>
