<?xml version="1.0" encoding="iso-8859-1"?>
<!-- Generator: Adobe Illustrator 19.0.0, SVG Export Plug-In . SVG Version: 6.00 Build 0)  -->
<svg version="1.1" id="Capa_1" xmlns="http://www.w3.org/2000/svg" xmlns:xlink="http://www.w3.org/1999/xlink" x="0px" y="0px"
	 viewBox="0 0 512 512" style="enable-background:new 0 0 512 512;" xml:space="preserve">
<g>
	<g>
		<g>
			<path d="M464,32h-48V0h-32v32H128V0H96v32H48C21.49,32,0,53.49,0,80v432h512V80C512,53.49,490.51,32,464,32z M480,160H224v32h256
				v288H32V192h32v-32H32V80c0-8.837,7.163-16,16-16h48v32h32V64h256v32h32V64h48c8.837,0,16,7.163,16,16V160z"/>
			<rect x="160" y="160" width="32" height="32"/>
			<rect x="96" y="160" width="32" height="32"/>
			<path d="M448,288H288v160h160V288z M416,416h-96v-96h96V416z"/>
		</g>
	</g>
</g>
<g>
</g>
<g>
</g>
<g>
</g>
<g>
</g>
<g>
</g>
<g>
</g>
<g>
</g>
<g>
</g>
<g>
</g>
<g>
</g>
<g>
</g>
<g>
</g>
<g>
</g>
<g>
</g>
<g>
</g>
</svg>
