<?xml version="1.0" encoding="iso-8859-1"?>
<!-- Generator: Adobe Illustrator 19.0.0, SVG Export Plug-In . SVG Version: 6.00 Build 0)  -->
<svg version="1.1" id="Capa_1" xmlns="http://www.w3.org/2000/svg" xmlns:xlink="http://www.w3.org/1999/xlink" x="0px" y="0px"
	 viewBox="0 0 512.001 512.001" style="enable-background:new 0 0 512.001 512.001;" xml:space="preserve">
<g>
	<g>
		<g>
			<path d="M256.001,0.001h-0.096C217.583-0.1,179.738,8.495,145.217,25.137l13.856,28.8c30.204-14.539,63.311-22.039,96.832-21.936
				h0.096c123.712,0,224,100.288,224,224s-100.288,224-224,224s-224-100.288-224-224c-0.096-34.29,7.758-68.136,22.944-98.88
				l-28.8-14.112C8.816,178.147-0.133,216.823,0.001,256.001c0,141.385,114.615,256,256,256s256-114.615,256-256
				S397.386,0.001,256.001,0.001z"/>
			<path d="M133.137,68.657l-17.6-26.72c-9.506,6.252-18.592,13.12-27.2,20.56l20.992,24.192
				C116.87,80.173,124.822,74.15,133.137,68.657z"/>
			<path d="M88.113,107.713L64.162,86.497c-7.529,8.528-14.478,17.55-20.8,27.008l26.528,17.808
				C75.434,123.051,81.522,115.167,88.113,107.713z"/>
			<path d="M160.001,320.001h-32c0,61.744,57.424,112,128,112s128-50.256,128-112h-32c0,44.112-43.056,80-96,80
				C203.058,400.001,160.001,364.113,160.001,320.001z"/>
			<path d="M160.001,128.001c-35.346,0-64,28.654-64,64c0,35.346,28.654,64,64,64c35.346,0,64-28.654,64-64
				C224.001,156.655,195.348,128.001,160.001,128.001z M160.001,224.001c-17.673,0-32-14.327-32-32s14.327-32,32-32s32,14.327,32,32
				S177.675,224.001,160.001,224.001z"/>
			<path d="M416.001,192.001c0-35.346-28.654-64-64-64c-35.346,0-64,28.654-64,64c0,35.346,28.654,64,64,64
				C387.348,256.001,416.001,227.347,416.001,192.001z M320.001,192.001c0-17.673,14.327-32,32-32c17.673,0,32,14.327,32,32
				s-14.327,32-32,32C334.328,224.001,320.001,209.674,320.001,192.001z"/>
		</g>
	</g>
</g>
<g>
</g>
<g>
</g>
<g>
</g>
<g>
</g>
<g>
</g>
<g>
</g>
<g>
</g>
<g>
</g>
<g>
</g>
<g>
</g>
<g>
</g>
<g>
</g>
<g>
</g>
<g>
</g>
<g>
</g>
</svg>
