<?xml version="1.0" encoding="iso-8859-1"?>
<!-- Generator: Adobe Illustrator 19.0.0, SVG Export Plug-In . SVG Version: 6.00 Build 0)  -->
<svg version="1.1" id="Capa_1" xmlns="http://www.w3.org/2000/svg" xmlns:xlink="http://www.w3.org/1999/xlink" x="0px" y="0px"
	 viewBox="0 0 512 512" style="enable-background:new 0 0 512 512;" xml:space="preserve">
<g>
	<g>
		<g>
			<rect x="272" width="32" height="32"/>
			<rect x="208" width="32" height="32"/>
			<polygon points="336,0 336,32 480,32 480,480 32,480 32,32 176,32 176,0 0,0 0,512 512,512 512,0 			"/>
			<path d="M176,448V256H80v192H176z M112,288h32v128h-32V288z"/>
			<path d="M304,96h-96v352h96V96z M272,416h-32V128h32V416z"/>
			<path d="M432,160h-96v288h96V160z M400,416h-32V192h32V416z"/>
		</g>
	</g>
</g>
<g>
</g>
<g>
</g>
<g>
</g>
<g>
</g>
<g>
</g>
<g>
</g>
<g>
</g>
<g>
</g>
<g>
</g>
<g>
</g>
<g>
</g>
<g>
</g>
<g>
</g>
<g>
</g>
<g>
</g>
</svg>
