<?xml version="1.0" encoding="iso-8859-1"?>
<!-- Generator: Adobe Illustrator 19.0.0, SVG Export Plug-In . SVG Version: 6.00 Build 0)  -->
<svg version="1.1" id="Capa_1" xmlns="http://www.w3.org/2000/svg" xmlns:xlink="http://www.w3.org/1999/xlink" x="0px" y="0px"
	 viewBox="0 0 512 512" style="enable-background:new 0 0 512 512;" xml:space="preserve">
<g>
	<g>
		<g>
			<rect width="512" height="32"/>
			<rect y="96" width="80" height="32"/>
			<rect y="192" width="80" height="32"/>
			<rect y="288" width="80" height="32"/>
			<rect x="432" y="96" width="80" height="32"/>
			<rect x="432" y="192" width="80" height="32"/>
			<rect x="432" y="288" width="80" height="32"/>
			<rect y="384" width="512" height="32"/>
			<path d="M112,96v224h288V96H112z M368,288H214.624L304,198.624l64,64V288z M368,217.376l-64-64L169.376,288H144V128h224V217.376z
				"/>
			<rect x="176" y="160" width="32" height="32"/>
			<rect y="480" width="288" height="32"/>
			<rect x="320" y="480" width="32" height="32"/>
			<rect x="384" y="480" width="32" height="32"/>
		</g>
	</g>
</g>
<g>
</g>
<g>
</g>
<g>
</g>
<g>
</g>
<g>
</g>
<g>
</g>
<g>
</g>
<g>
</g>
<g>
</g>
<g>
</g>
<g>
</g>
<g>
</g>
<g>
</g>
<g>
</g>
<g>
</g>
</svg>
