<?xml version="1.0" encoding="iso-8859-1"?>
<!-- Generator: Adobe Illustrator 19.0.0, SVG Export Plug-In . SVG Version: 6.00 Build 0)  -->
<svg version="1.1" id="Capa_1" xmlns="http://www.w3.org/2000/svg" xmlns:xlink="http://www.w3.org/1999/xlink" x="0px" y="0px"
	 viewBox="0 0 512 512" style="enable-background:new 0 0 512 512;" xml:space="preserve">
<g>
	<g>
		<g>
			<path d="M96,32h160c8.837,0,16,7.163,16,16c0,26.51,21.49,48,48,48h32.096V64H320c-8.837,0-16-7.163-16-16
				c0-26.51-21.49-48-48-48H0v512h96V256h64v-32H96V32z M64,480H32V32h32V480z"/>
			<rect x="384.16" y="64" width="32" height="32"/>
			<path d="M448.096,64v32H480v192H320c-8.837,0-16-7.163-16-16c0-26.51-21.49-48-48-48v32c8.837,0,16,7.163,16,16
				c0,26.51,21.49,48,48,48h192V64H448.096z"/>
			<rect x="192" y="224" width="32" height="32"/>
		</g>
	</g>
</g>
<g>
</g>
<g>
</g>
<g>
</g>
<g>
</g>
<g>
</g>
<g>
</g>
<g>
</g>
<g>
</g>
<g>
</g>
<g>
</g>
<g>
</g>
<g>
</g>
<g>
</g>
<g>
</g>
<g>
</g>
</svg>
