<?xml version="1.0" encoding="iso-8859-1"?>
<!-- Generator: Adobe Illustrator 19.0.0, SVG Export Plug-In . SVG Version: 6.00 Build 0)  -->
<svg version="1.1" id="Capa_1" xmlns="http://www.w3.org/2000/svg" xmlns:xlink="http://www.w3.org/1999/xlink" x="0px" y="0px"
	 viewBox="0 0 512 512" style="enable-background:new 0 0 512 512;" xml:space="preserve">
<g>
	<g>
		<g>
			<rect width="32" height="32"/>
			<rect x="80" width="32" height="32"/>
			<rect x="160" width="32" height="32"/>
			<rect x="240" width="32" height="32"/>
			<rect x="320" width="32" height="32"/>
			<rect x="400" width="32" height="32"/>
			<rect x="480" width="32" height="32"/>
			<rect x="400" y="480" width="32" height="32"/>
			<rect y="80" width="32" height="32"/>
			<rect x="480" y="400" width="32" height="32"/>
			<rect x="480" y="320" width="32" height="32"/>
			<rect x="480" y="240" width="32" height="32"/>
			<rect x="480" y="160" width="32" height="32"/>
			<rect x="480" y="80" width="32" height="32"/>
			<rect x="480" y="480" width="32" height="32"/>
			<polygon points="336,96 393.376,96 321.952,167.44 344.576,190.064 416,118.624 416,176 448,176 448,64 336,64 			"/>
			<rect x="283.32" y="196.667" transform="matrix(0.7071 0.7071 -0.7071 0.7071 238.0474 -149.3626)" width="32" height="32"/>
			<path d="M336,345.376l-80.992-80.992L189.024,342.4l-61.808-61.808L32,389.424V176h240v-32H0v368h368V240h-32V345.376z M32,480
				v-42l96.784-110.592l39.488,39.504L72.592,480H32z M336,480H114.496l142.496-168.384L336,390.624V480z"/>
			<rect x="80" y="208" width="32" height="32"/>
		</g>
	</g>
</g>
<g>
</g>
<g>
</g>
<g>
</g>
<g>
</g>
<g>
</g>
<g>
</g>
<g>
</g>
<g>
</g>
<g>
</g>
<g>
</g>
<g>
</g>
<g>
</g>
<g>
</g>
<g>
</g>
<g>
</g>
</svg>
