<?xml version="1.0" encoding="iso-8859-1"?>
<!-- Generator: Adobe Illustrator 19.0.0, SVG Export Plug-In . SVG Version: 6.00 Build 0)  -->
<svg version="1.1" id="Capa_1" xmlns="http://www.w3.org/2000/svg" xmlns:xlink="http://www.w3.org/1999/xlink" x="0px" y="0px"
	 viewBox="0 0 512 512" style="enable-background:new 0 0 512 512;" xml:space="preserve">
<g>
	<g>
		<g>
			<path d="M448,64V0h-32v64h-64v32h64v185.376l-80.992-80.992L254.4,295.728l-63.136-63.136L96,341.424V96h96V64H64v352H0v32h64v64
				h32v-64h352V96h64V64H448z M96,416v-26l96.784-110.592L233.6,320.24L152.592,416H96z M416,416H194.496l142.496-168.384
				L416,326.624V416z"/>
			<rect x="224" y="64" width="32" height="32"/>
			<rect x="288" y="64" width="32" height="32"/>
			<rect x="144" y="144" width="32" height="32"/>
		</g>
	</g>
</g>
<g>
</g>
<g>
</g>
<g>
</g>
<g>
</g>
<g>
</g>
<g>
</g>
<g>
</g>
<g>
</g>
<g>
</g>
<g>
</g>
<g>
</g>
<g>
</g>
<g>
</g>
<g>
</g>
<g>
</g>
</svg>
