<?xml version="1.0" encoding="iso-8859-1"?>
<!-- Generator: Adobe Illustrator 19.0.0, SVG Export Plug-In . SVG Version: 6.00 Build 0)  -->
<svg version="1.1" id="Capa_1" xmlns="http://www.w3.org/2000/svg" xmlns:xlink="http://www.w3.org/1999/xlink" x="0px" y="0px"
	 viewBox="0 0 507.312 507.312" style="enable-background:new 0 0 507.312 507.312;" xml:space="preserve">
<g>
	<g>
		<g>
			<polygon points="59.312,84.688 22.624,48 0,70.624 59.312,129.936 166.624,22.624 144,0 			"/>
			<polygon points="59.312,260.688 22.624,224 0,246.624 59.312,305.936 166.624,198.624 144,176 			"/>
			<polygon points="59.312,452.688 22.624,416 0,438.624 59.312,497.936 166.624,390.624 144,368 			"/>
			<rect x="475.312" y="59.312" width="32" height="32"/>
			<rect x="219.312" y="59.312" width="160" height="32"/>
			<rect x="411.312" y="59.312" width="32" height="32"/>
			<path d="M347.312,187.312c-88.366,0-160,71.634-160,160s71.634,160,160,160s160-71.634,160-160
				C507.215,258.987,435.637,187.409,347.312,187.312z M347.312,475.312c-70.692,0-128-57.308-128-128s57.308-128,128-128
				s128,57.308,128,128C475.233,417.972,417.972,475.233,347.312,475.312z"/>
			<polygon points="363.312,251.312 331.312,251.312 331.312,363.312 411.312,363.312 411.312,331.312 363.312,331.312 			"/>
			<rect x="331.312" y="411.312" width="32" height="32"/>
			<rect x="251.312" y="331.312" width="32" height="32"/>
		</g>
	</g>
</g>
<g>
</g>
<g>
</g>
<g>
</g>
<g>
</g>
<g>
</g>
<g>
</g>
<g>
</g>
<g>
</g>
<g>
</g>
<g>
</g>
<g>
</g>
<g>
</g>
<g>
</g>
<g>
</g>
<g>
</g>
</svg>
