<?xml version="1.0" encoding="iso-8859-1"?>
<!-- Generator: Adobe Illustrator 19.0.0, SVG Export Plug-In . SVG Version: 6.00 Build 0)  -->
<svg version="1.1" id="Capa_1" xmlns="http://www.w3.org/2000/svg" xmlns:xlink="http://www.w3.org/1999/xlink" x="0px" y="0px"
	 viewBox="0 0 512.134 512.134" style="enable-background:new 0 0 512.134 512.134;" xml:space="preserve">
<g>
	<g>
		<g>
			<path d="M121.074,77.298l-19.312-25.504c-9.07,6.891-17.676,14.374-25.76,22.4l22.496,22.688
				C105.582,89.862,113.124,83.32,121.074,77.298z"/>
			<path d="M78.738,119.218L53.426,99.634c-6.965,9.03-13.316,18.518-19.008,28.4l27.68,16
				C67.086,135.401,72.645,127.11,78.738,119.218z"/>
			<path d="M353.491,19.296C322.605,6.586,289.529,0.042,256.13,0.034c-44.108-0.016-87.472,11.365-125.888,33.04l15.744,27.856
				c28.896-16.292,61.054-25.954,94.144-28.288v446.576C116.735,470.362,23.883,363.153,32.739,239.758
				c1.701-23.698,7.161-46.974,16.175-68.956L19.33,158.61c-53.806,130.746,8.567,280.356,139.313,334.161
				s280.356-8.567,334.161-139.313S484.238,73.102,353.491,19.296z M272.13,32.85c21.862,1.536,43.375,6.302,63.84,14.144
				l-63.84,63.856V32.85z M272.13,156.05l94.608-94.608c14.093,8.077,27.269,17.658,39.296,28.576L272.13,224.034V156.05z
				 M272.13,269.17l156.224-156.208c10.444,12.641,19.474,26.387,26.928,40.992L272.13,337.09V269.17z M290.754,477.073
				l186.432-186.512C462.057,386.583,386.762,461.904,290.754,477.073z M272.13,450.37v-67.936l196.56-196.64
				c6.085,18.528,9.711,37.776,10.784,57.248L272.13,450.37z"/>
		</g>
	</g>
</g>
<g>
</g>
<g>
</g>
<g>
</g>
<g>
</g>
<g>
</g>
<g>
</g>
<g>
</g>
<g>
</g>
<g>
</g>
<g>
</g>
<g>
</g>
<g>
</g>
<g>
</g>
<g>
</g>
<g>
</g>
</svg>
