<?xml version="1.0" encoding="iso-8859-1"?>
<!-- Generator: Adobe Illustrator 19.0.0, SVG Export Plug-In . SVG Version: 6.00 Build 0)  -->
<svg version="1.1" id="Capa_1" xmlns="http://www.w3.org/2000/svg" xmlns:xlink="http://www.w3.org/1999/xlink" x="0px" y="0px"
	 viewBox="0 0 510.753 510.753" style="enable-background:new 0 0 510.753 510.753;" xml:space="preserve">
<g>
	<g>
		<g>
			<path d="M509.337,215.393l-0.064-0.032c-8.228-53.964-33.661-103.83-72.512-142.176C339.414-21.37,185.573-24.707,84.217,65.537
				c-104.59,95.004-112.36,256.806-17.356,361.396c48.444,53.332,117.131,83.765,189.18,83.82c7.424,0,14.864-0.304,22.4-0.96
				c25.071-2.214,47.947-15.196,62.704-35.584c15.06-20.718,20.394-46.949,14.624-71.904l-4.144-17.904
				c-6.934-30.141,11.879-60.196,42.019-67.13c6.155-1.416,12.504-1.781,18.781-1.078c48.291,5.485,91.885-29.215,97.37-77.505
				C510.676,230.936,510.522,223.103,509.337,215.393z M462.697,267.489c-12.06,12.66-29.368,18.917-46.736,16.896
				c-48.298-5.419-91.844,29.341-97.264,77.639c-1.108,9.879-0.535,19.874,1.696,29.561l4.144,17.904
				c3.685,15.92,0.282,32.655-9.328,45.872c-9.292,12.889-23.713,21.118-39.536,22.56C152.7,487.879,44.937,396.262,34.979,273.288
				C25.021,150.315,116.638,42.552,239.612,32.594c64.627-5.233,128.338,17.87,174.59,63.31
				c33.987,33.528,56.233,77.139,63.424,124.336c2.708,17.222-2.825,34.716-14.944,47.248H462.697z"/>
			<rect x="364.921" y="114.523" transform="matrix(-0.7071 -0.7071 0.7071 -0.7071 557.9789 492.169)" width="32" height="32"/>
			<rect x="116.036" y="363.408" transform="matrix(-0.7071 -0.7071 0.7071 -0.7071 -42.8821 741.0543)" width="32" height="32"/>
			<rect x="410.489" y="193.445" transform="matrix(-0.2588 -0.9659 0.9659 -0.2588 334.5653 675.6102)" width="32" height="32"/>
			<rect x="240.473" y="62.945" width="32" height="32"/>
			<rect x="240.473" y="415.681" width="32" height="32"/>
			<rect x="116.028" y="114.488" transform="matrix(0.7071 0.7071 -0.7071 0.7071 130.9392 -55.1389)" width="32" height="32"/>
			<rect x="64.473" y="238.945" width="32" height="32"/>
		</g>
	</g>
</g>
<g>
</g>
<g>
</g>
<g>
</g>
<g>
</g>
<g>
</g>
<g>
</g>
<g>
</g>
<g>
</g>
<g>
</g>
<g>
</g>
<g>
</g>
<g>
</g>
<g>
</g>
<g>
</g>
<g>
</g>
</svg>
