<?xml version="1.0" encoding="iso-8859-1"?>
<!-- Generator: Adobe Illustrator 19.0.0, SVG Export Plug-In . SVG Version: 6.00 Build 0)  -->
<svg version="1.1" id="Capa_1" xmlns="http://www.w3.org/2000/svg" xmlns:xlink="http://www.w3.org/1999/xlink" x="0px" y="0px"
	 viewBox="0 0 493.248 493.248" style="enable-background:new 0 0 493.248 493.248;" xml:space="preserve">
<g>
	<g>
		<g>
			<rect x="341.614" y="71.647" transform="matrix(0.7071 0.7071 -0.7071 0.7071 166.7186 -227.2003)" width="32" height="32"/>
			<rect x="296.378" y="116.874" transform="matrix(0.7071 0.7071 -0.7071 0.7071 185.4496 -181.9664)" width="32" height="32"/>
			<polygon points="493.248,70.624 422.624,0 380.24,42.384 402.864,65.008 422.624,45.248 448,70.624 272,246.624 448,422.624 
				422.624,448 246.624,272 70.624,448 45.248,422.624 221.248,246.624 45.248,70.624 70.624,45.248 246.624,221.248 
				289.712,178.144 267.088,155.52 246.624,176 70.624,0 0,70.624 176,246.624 0,422.624 70.624,493.248 246.624,317.248 
				422.624,493.248 493.248,422.624 317.248,246.624 			"/>
		</g>
	</g>
</g>
<g>
</g>
<g>
</g>
<g>
</g>
<g>
</g>
<g>
</g>
<g>
</g>
<g>
</g>
<g>
</g>
<g>
</g>
<g>
</g>
<g>
</g>
<g>
</g>
<g>
</g>
<g>
</g>
<g>
</g>
</svg>
