<?xml version="1.0" encoding="iso-8859-1"?>
<!-- Generator: Adobe Illustrator 19.0.0, SVG Export Plug-In . SVG Version: 6.00 Build 0)  -->
<svg version="1.1" id="Capa_1" xmlns="http://www.w3.org/2000/svg" xmlns:xlink="http://www.w3.org/1999/xlink" x="0px" y="0px"
	 viewBox="0 0 512 512" style="enable-background:new 0 0 512 512;" xml:space="preserve">
<g>
	<g>
		<g>
			<path d="M330.832,192l-24-60.144L336,102.624V0H176v102.624l29.216,29.232L181.168,192H48v96h32v224h352V288h32v-96H330.832z
				 M432,256h-96v32h64v192h-32V320h-32v160h-32v-96h-32v96h-32V320h-32v160h-32v-96h-32v96h-32V288h64v-32H80v-32h122.832
				l40-99.856L208,89.376V32h96v57.376l-34.784,34.768L309.168,224H432V256z"/>
			<rect x="208" y="256" width="32" height="32"/>
			<rect x="272" y="256" width="32" height="32"/>
		</g>
	</g>
</g>
<g>
</g>
<g>
</g>
<g>
</g>
<g>
</g>
<g>
</g>
<g>
</g>
<g>
</g>
<g>
</g>
<g>
</g>
<g>
</g>
<g>
</g>
<g>
</g>
<g>
</g>
<g>
</g>
<g>
</g>
</svg>
