<?xml version="1.0" encoding="iso-8859-1"?>
<!-- Generator: Adobe Illustrator 19.0.0, SVG Export Plug-In . SVG Version: 6.00 Build 0)  -->
<svg version="1.1" id="Capa_1" xmlns="http://www.w3.org/2000/svg" xmlns:xlink="http://www.w3.org/1999/xlink" x="0px" y="0px"
	 viewBox="0 0 512 512" style="enable-background:new 0 0 512 512;" xml:space="preserve">
<g>
	<g>
		<g>
			<path d="M123.2,200.16l29.504,12.432c3.624-8.609,8.311-16.731,13.952-24.176l-25.488-19.312
				C133.914,178.671,127.878,189.103,123.2,200.16z"/>
			<path d="M209.984,153.84L196.8,124.688c-10.957,4.939-21.251,11.233-30.64,18.736l20,24.992
				C193.461,162.581,201.465,157.684,209.984,153.84z"/>
			<path d="M256,112c-8.318,0.001-16.621,0.718-24.816,2.144l5.504,31.52c60.929-10.666,118.969,30.081,129.635,91.01
				c10.666,60.929-30.081,118.969-91.01,129.634c-60.929,10.666-118.969-30.081-129.634-91.01
				c-1.115-6.372-1.677-12.829-1.678-19.298c0.008-5.553,0.414-11.098,1.216-16.592l-31.616-4.624
				c-1.043,7.024-1.578,14.115-1.6,21.216c0,79.529,64.471,144,144,144s144-64.471,144-144S335.529,112,256,112z"/>
			<rect x="240" width="32" height="80"/>
			<rect x="240" y="432" width="32" height="80"/>
			<rect x="63.272" y="87.258" transform="matrix(0.7071 0.7071 -0.7071 0.7071 103.2601 -42.7753)" width="79.984" height="32"/>
			
				<rect x="368.794" y="392.776" transform="matrix(-0.7071 -0.7071 0.7071 -0.7071 408.7937 986.8791)" width="79.984" height="32"/>
			<rect y="240" width="80" height="32"/>
			<rect x="432" y="240" width="80" height="32"/>
			
				<rect x="87.315" y="368.816" transform="matrix(-0.7071 -0.7071 0.7071 -0.7071 -112.7017 770.9333)" width="32" height="79.984"/>
			<rect x="392.768" y="63.23" transform="matrix(0.7071 0.7071 -0.7071 0.7071 192.7149 -258.8098)" width="32" height="79.984"/>
		</g>
	</g>
</g>
<g>
</g>
<g>
</g>
<g>
</g>
<g>
</g>
<g>
</g>
<g>
</g>
<g>
</g>
<g>
</g>
<g>
</g>
<g>
</g>
<g>
</g>
<g>
</g>
<g>
</g>
<g>
</g>
<g>
</g>
</svg>
