<?xml version="1.0" encoding="iso-8859-1"?>
<!-- Generator: Adobe Illustrator 19.0.0, SVG Export Plug-In . SVG Version: 6.00 Build 0)  -->
<svg version="1.1" id="Capa_1" xmlns="http://www.w3.org/2000/svg" xmlns:xlink="http://www.w3.org/1999/xlink" x="0px" y="0px"
	 viewBox="0 0 512 512" style="enable-background:new 0 0 512 512;" xml:space="preserve">
<g>
	<g>
		<g>
			<rect x="240" y="400" width="32" height="32"/>
			<rect x="240" y="320" width="32" height="32"/>
			<rect x="240" y="160" width="32" height="32"/>
			<rect x="240" y="80" width="32" height="32"/>
			<rect x="480" width="32" height="512"/>
			<rect y="480" width="32" height="32"/>
			<rect y="400" width="32" height="32"/>
			<rect y="320" width="32" height="32"/>
			<rect y="240" width="32" height="32"/>
			<rect y="160" width="32" height="32"/>
			<rect y="80" width="32" height="32"/>
			<rect x="80" y="480" width="32" height="32"/>
			<rect x="160" y="480" width="32" height="32"/>
			<rect x="240" y="480" width="32" height="32"/>
			<rect x="320" y="480" width="32" height="32"/>
			<rect x="400" y="480" width="32" height="32"/>
			<rect x="80" y="240" width="32" height="32"/>
			<rect x="160" y="240" width="32" height="32"/>
			<rect x="240" y="240" width="32" height="32"/>
			<rect x="320" y="240" width="32" height="32"/>
			<rect x="400" y="240" width="32" height="32"/>
			<rect x="80" width="32" height="32"/>
			<rect x="160" width="32" height="32"/>
			<rect x="240" width="32" height="32"/>
			<rect x="320" width="32" height="32"/>
			<rect x="400" width="32" height="32"/>
			<rect width="32" height="32"/>
		</g>
	</g>
</g>
<g>
</g>
<g>
</g>
<g>
</g>
<g>
</g>
<g>
</g>
<g>
</g>
<g>
</g>
<g>
</g>
<g>
</g>
<g>
</g>
<g>
</g>
<g>
</g>
<g>
</g>
<g>
</g>
<g>
</g>
</svg>
