<?xml version="1.0" encoding="iso-8859-1"?>
<!-- Generator: Adobe Illustrator 19.0.0, SVG Export Plug-In . SVG Version: 6.00 Build 0)  -->
<svg version="1.1" id="Capa_1" xmlns="http://www.w3.org/2000/svg" xmlns:xlink="http://www.w3.org/1999/xlink" x="0px" y="0px"
	 viewBox="0 0 512 512" style="enable-background:new 0 0 512 512;" xml:space="preserve">
<g>
	<g>
		<g>
			<path d="M336,96v304c0,44.183-35.817,80-80,80s-80-35.817-80-80V256h-32v144c0,61.856,50.144,112,112,112s112-50.144,112-112V96
				H336z"/>
			<path d="M176,80c0-26.51,21.49-48,48-48c26.51,0,48,21.49,48,48v320c0,8.837-7.163,16-16,16s-16-7.163-16-16V96h-32v304
				c0,26.51,21.49,48,48,48c26.51,0,48-21.49,48-48V80c0-44.183-35.817-80-80-80s-80,35.817-80,80v16h32V80z"/>
			<rect x="144" y="128" width="32" height="32"/>
			<rect x="144" y="192" width="32" height="32"/>
		</g>
	</g>
</g>
<g>
</g>
<g>
</g>
<g>
</g>
<g>
</g>
<g>
</g>
<g>
</g>
<g>
</g>
<g>
</g>
<g>
</g>
<g>
</g>
<g>
</g>
<g>
</g>
<g>
</g>
<g>
</g>
<g>
</g>
</svg>
