<?xml version="1.0" encoding="iso-8859-1"?>
<!-- Generator: Adobe Illustrator 19.0.0, SVG Export Plug-In . SVG Version: 6.00 Build 0)  -->
<svg version="1.1" id="Capa_1" xmlns="http://www.w3.org/2000/svg" xmlns:xlink="http://www.w3.org/1999/xlink" x="0px" y="0px"
	 viewBox="0 0 512 512" style="enable-background:new 0 0 512 512;" xml:space="preserve">
<g>
	<g>
		<g>
			<path d="M336,0v512h160V0H336z M464,480h-96V32h96V480z"/>
			<rect x="16" width="32" height="32"/>
			<rect x="80" width="32" height="32"/>
			<rect x="144" width="32" height="32"/>
			<rect x="208" width="32" height="32"/>
			<rect x="272" width="32" height="32"/>
			<rect x="16" y="480" width="32" height="32"/>
			<rect x="80" y="480" width="32" height="32"/>
			<rect x="144" y="480" width="32" height="32"/>
			<rect x="208" y="480" width="32" height="32"/>
			<rect x="272" y="480" width="32" height="32"/>
			<path d="M176,118.624l36.688,36.688l22.624-22.624L160,57.376l-75.312,75.312l22.624,22.624L144,118.624V192H64v128h80v73.376
				l-36.688-36.688l-22.624,22.624L160,454.624l75.312-75.312l-22.624-22.624L176,393.376V320h80V192h-80V118.624z M224,224v64H96
				v-64H224z"/>
		</g>
	</g>
</g>
<g>
</g>
<g>
</g>
<g>
</g>
<g>
</g>
<g>
</g>
<g>
</g>
<g>
</g>
<g>
</g>
<g>
</g>
<g>
</g>
<g>
</g>
<g>
</g>
<g>
</g>
<g>
</g>
<g>
</g>
</svg>
