<?xml version="1.0" encoding="iso-8859-1"?>
<!-- Generator: Adobe Illustrator 19.0.0, SVG Export Plug-In . SVG Version: 6.00 Build 0)  -->
<svg version="1.1" id="Capa_1" xmlns="http://www.w3.org/2000/svg" xmlns:xlink="http://www.w3.org/1999/xlink" x="0px" y="0px"
	 viewBox="0 0 512 512" style="enable-background:new 0 0 512 512;" xml:space="preserve">
<g>
	<g>
		<g>
			<path d="M0,16v160h512V16H0z M480,144H32V48h448V144z"/>
			<rect y="464" width="32" height="32"/>
			<rect y="400" width="32" height="32"/>
			<rect y="336" width="32" height="32"/>
			<rect y="272" width="32" height="32"/>
			<rect y="208" width="32" height="32"/>
			<rect x="480" y="464" width="32" height="32"/>
			<rect x="480" y="400" width="32" height="32"/>
			<rect x="480" y="336" width="32" height="32"/>
			<rect x="480" y="272" width="32" height="32"/>
			<rect x="480" y="208" width="32" height="32"/>
			<path d="M356.688,283.312L393.376,320H320v-48H192v48h-73.376l36.688-36.688l-22.624-22.624L57.376,336l75.312,75.312
				l22.624-22.624L118.624,352H192v48h128v-48h73.376l-36.688,36.688l22.624,22.624L454.624,336l-75.312-75.312L356.688,283.312z
				 M288,368h-64v-64h64V368z"/>
		</g>
	</g>
</g>
<g>
</g>
<g>
</g>
<g>
</g>
<g>
</g>
<g>
</g>
<g>
</g>
<g>
</g>
<g>
</g>
<g>
</g>
<g>
</g>
<g>
</g>
<g>
</g>
<g>
</g>
<g>
</g>
<g>
</g>
</svg>
