<?xml version="1.0" encoding="iso-8859-1"?>
<!-- Generator: Adobe Illustrator 19.0.0, SVG Export Plug-In . SVG Version: 6.00 Build 0)  -->
<svg version="1.1" id="Capa_1" xmlns="http://www.w3.org/2000/svg" xmlns:xlink="http://www.w3.org/1999/xlink" x="0px" y="0px"
	 viewBox="0 0 512.057 512.057" style="enable-background:new 0 0 512.057 512.057;" xml:space="preserve">
<g>
	<g>
		<g>
			<path d="M320.029,416v-96h96V192h-96V96h-128v96h-96v128h96v96H320.029z M128.029,288v-64h96v-96h64v96h96v64h-96v96h-64v-96
				H128.029z"/>
			<path d="M256.029,32c59.153-0.155,115.935,23.242,157.808,65.024l22.528-22.72C336.016-25.295,173.927-24.688,74.328,75.66
				c-47.259,47.615-73.939,111.878-74.3,178.963v1.904l32-0.528C32.161,132.343,132.372,32.132,256.029,32z"/>
			<path d="M483.693,138.864c-6.13-11.92-13.192-23.336-21.12-34.144l-25.744,18.944c6.908,9.442,13.061,19.414,18.4,29.824
				L483.693,138.864z"/>
			<path d="M477.165,220l31.6-5.104c-2.149-13.237-5.332-26.285-9.52-39.024l-30.4,10.016
				C472.503,197.024,475.285,208.429,477.165,220z"/>
			<path d="M28.109,372.672c6.116,11.915,13.151,23.336,21.04,34.16l25.856-18.864c-6.914-9.472-13.077-19.471-18.432-29.904
				L28.109,372.672z"/>
			<path d="M34.813,291.504l-31.584,5.072c2.126,13.234,5.282,26.282,9.44,39.024l30.4-9.936
				C39.44,314.507,36.68,303.086,34.813,291.504z"/>
			<path d="M480.029,256c0,123.712-100.288,224-223.999,224.001c-59.287,0-116.157-23.504-158.145-65.361l-22.656,22.656
				c100.095,99.853,262.185,99.657,362.038-0.438c47.889-48.005,74.777-113.05,74.762-180.858v-1.04L480.029,256z"/>
		</g>
	</g>
</g>
<g>
</g>
<g>
</g>
<g>
</g>
<g>
</g>
<g>
</g>
<g>
</g>
<g>
</g>
<g>
</g>
<g>
</g>
<g>
</g>
<g>
</g>
<g>
</g>
<g>
</g>
<g>
</g>
<g>
</g>
</svg>
