<?xml version="1.0" encoding="iso-8859-1"?>
<!-- Generator: Adobe Illustrator 19.0.0, SVG Export Plug-In . SVG Version: 6.00 Build 0)  -->
<svg version="1.1" id="Capa_1" xmlns="http://www.w3.org/2000/svg" xmlns:xlink="http://www.w3.org/1999/xlink" x="0px" y="0px"
	 viewBox="0 0 512 512" style="enable-background:new 0 0 512 512;" xml:space="preserve">
<g>
	<g>
		<g>
			<polygon points="32,336 0,336 0,512 176,512 176,480 32,480 			"/>
			<rect x="272" y="480" width="32" height="32"/>
			<rect x="208" y="480" width="32" height="32"/>
			<polygon points="480,480 336,480 336,512 512,512 512,336 480,336 			"/>
			<rect x="480" y="272" width="32" height="32"/>
			<rect x="480" y="208" width="32" height="32"/>
			<polygon points="336,0 336,32 480,32 480,176 512,176 512,0 			"/>
			<rect x="208" width="32" height="32"/>
			<rect x="272" width="32" height="32"/>
			<polygon points="32,32 176,32 176,0 0,0 0,176 32,176 			"/>
			<rect y="272" width="32" height="32"/>
			<rect y="208" width="32" height="32"/>
			<path d="M416,192h-96V96H192v96H96v128h96v96h128v-96h96V192z M384,288h-96v96h-64v-96h-96v-64h96v-96h64v96h96V288z"/>
		</g>
	</g>
</g>
<g>
</g>
<g>
</g>
<g>
</g>
<g>
</g>
<g>
</g>
<g>
</g>
<g>
</g>
<g>
</g>
<g>
</g>
<g>
</g>
<g>
</g>
<g>
</g>
<g>
</g>
<g>
</g>
<g>
</g>
</svg>
